:SAMPLES-PER-SECOND 30
:FULLY-SPECIFIED
:DEGREES
644
root  -8.41233 38.5825 -13.6641 -130.261 -83.2598 123.47
RightUpLeg  -17.3505 -6.90651 -5.26754
RightLeg  0.246602 6.63884 -0.307406
RightFoot  -3.77501 -0.560684 7.90199
RightToes  -8.14909e-010 0 -3.6325e-017
Spine  5.47493 -0.354185 -2.25497
Spine1  6.30741 -0.924657 1.68667
HEad  -12.2353 6.03545 -2.6195
LeftShoulder1  -0.280657 4.37261 -26.0636
LeftArm  12.4158 -4.96633 -37.3497
LeftForeArm  36.5633 -23.2692 -3.22799
LeftHand  -0.0228606 5.51835 3.21828
RightShoulder  -0.758434 -5.67085 28.3566
RightArm  12.7758 -8.25235 43.0771
RightForeArm  20.7709 13.3943 5.0257
RightHand  0.119537 1.30335 1.94425
LeftUpLeg  11.9928 5.24288 -7.18488
LeftLeg  13.5593 -3.14729 -0.753389
LeftFoot  -18.2249 0.445843 5.60153
LeftToes  1.648e-009 -9.21574e-011 2.55256e-011
645
root  -9.89717 38.3561 -13.8371 -132.171 -84.1556 125.58
RightUpLeg  -18.1377 -6.15587 -3.89994
RightLeg  3.41615 3.66998 0.128118
RightFoot  -2.24811 -0.36289 5.11757
RightToes  -8.14909e-010 0 -3.6325e-017
Spine  4.69395 -0.68004 -1.33388
Spine1  6.63064 -1.36094 2.26082
HEad  -12.0167 6.59013 -3.32521
LeftShoulder1  -0.239424 4.25788 -25.4986
LeftArm  10.5543 -10.5038 -39.8409
LeftForeArm  36.035 -23.843 -3.24798
LeftHand  -0.00249444 6.36587 3.33343
RightShoulder  -0.709308 -5.53728 28.2158
RightArm  12.032 -7.9565 42.9703
RightForeArm  21.1678 12.0059 5.24091
RightHand  0.123682 1.95147 1.78903
LeftUpLeg  13.9392 4.7153 -6.24828
LeftLeg  14.4387 -3.12481 -0.378236
LeftFoot  -20.3086 0.504987 4.8689
LeftToes  1.648e-009 -9.21574e-011 2.55256e-011
646
root  -11.4077 38.2629 -14.015 -143.058 -85.351 136.397
RightUpLeg  -19.3297 -4.73479 -1.87047
RightLeg  9.18547 3.75755 0.310387
RightFoot  4.60717 0.0896603 -0.681176
RightToes  -8.14909e-010 0 -3.6325e-017
Spine  4.18226 -1.02 0.503974
Spine1  7.14065 -1.8963 3.1581
HEad  -11.5669 7.02519 -3.79026
LeftShoulder1  -0.202123 4.15189 -24.9202
LeftArm  7.64185 -15.6371 -41.6263
LeftForeArm  35.2561 -24.2348 -3.34362
LeftHand  0.0122483 6.93225 3.44007
RightShoulder  -0.716634 -5.56087 28.176
RightArm  12.0141 -7.59197 42.512
RightForeArm  20.9194 11.5397 5.35356
RightHand  0.0777318 1.60999 1.14873
LeftUpLeg  16.0679 3.43983 -4.70791
LeftLeg  15.5379 -2.33693 -0.18117
LeftFoot  -21.0333 0.389584 3.1397
LeftToes  1.648e-009 -9.21574e-011 2.55256e-011
647
root  -13.0016 38.0749 -14.2141 -161.698 -85.8237 154.539
RightUpLeg  -19.6671 -3.39754 -0.566847
RightLeg  14.8138 4.75453 1.0443
RightFoot  7.77572 0.140543 -0.553817
RightToes  -8.14909e-010 0 -3.6325e-017
Spine  4.58302 -1.36902 2.13698
Spine1  6.55104 -2.1827 3.58398
HEad  -11.3441 8.13551 -4.61583
LeftShoulder1  -0.144769 3.97488 -24.4303
LeftArm  4.08895 -19.8339 -42.806
LeftForeArm  35.031 -24.686 -3.45058
LeftHand  0.00690968 6.50805 3.89825
RightShoulder  -0.704684 -5.53531 28.0172
RightArm  12.4146 -7.42149 41.7769
RightForeArm  20.0233 11.5514 5.4501
RightHand  0.0884434 1.70032 1.30703
LeftUpLeg  17.244 2.06798 -3.14696
LeftLeg  19.8695 -2.07731 -0.528197
LeftFoot  -21.5982 0.0787409 -0.526146
LeftToes  1.648e-009 -9.21574e-011 2.55256e-011
648
root  -14.5438 37.9478 -14.4206 175.311 -85.1805 177.467
RightUpLeg  -20.4719 -2.17475 1.28285
RightLeg  21.2767 3.89126 1.46879
RightFoot  4.9724 0.511917 -3.32733
RightToes  -8.14909e-010 0 -3.6325e-017
Spine  4.70179 -1.59206 3.84933
Spine1  6.32201 -2.30332 4.26941
HEad  -11.2321 9.41851 -4.68498
LeftShoulder1  -0.10005 3.84207 -23.195
LeftArm  0.302432 -22.8302 -43.9295
LeftForeArm  36.2523 -25.6669 -3.59389
LeftHand  0.0199471 6.64723 4.6356
RightShoulder  -0.666435 -5.42722 27.9599
RightArm  12.0539 -6.54189 41.3748
RightForeArm  19.8562 10.9333 5.52484
RightHand  0.0659989 2.30278 0.8045
LeftUpLeg  16.2274 2.5447 -0.718222
LeftLeg  27.1262 -3.67643 -1.75186
LeftFoot  -19.9169 -0.27958 -5.54001
LeftToes  1.648e-009 -9.21574e-011 2.55256e-011
649
root  -15.9488 37.9126 -14.6616 161.342 -84.8555 -167.877
RightUpLeg  -20.5976 -2.14626 2.9204
RightLeg  24.8635 3.58046 1.58269
RightFoot  1.69464 0.5397 -4.61714
RightToes  -8.14909e-010 0 -3.6325e-017
Spine  4.50791 -2.05457 4.47588
Spine1  5.95066 -2.81245 5.94996
HEad  -11.1428 10.6393 -4.61627
LeftShoulder1  -0.0566031 3.70234 -22.2033
LeftArm  -2.09978 -25.4112 -43.8339
LeftForeArm  35.9938 -26.9202 -3.87111
LeftHand  0.0345156 6.94017 4.92108
RightShoulder  -0.640547 -5.34215 28.1087
RightArm  11.8373 -5.7997 41.097
RightForeArm  19.5038 11.06 5.441
RightHand  0.0623514 2.48186 0.719482
LeftUpLeg  11.8314 2.80046 1.84928
LeftLeg  37.3344 -5.36408 -4.01167
LeftFoot  -13.1398 -0.0625518 -10.5296
LeftToes  1.648e-009 -9.21574e-011 2.55256e-011
650
root  -17.2378 37.9677 -14.8604 146.319 -84.8618 -152.296
RightUpLeg  -19.7475 -2.91305 4.43624
RightLeg  26.6532 3.42174 1.62587
RightFoot  -1.08319 0.483965 -5.43387
RightToes  -8.14909e-010 0 -3.6325e-017
Spine  4.75824 -2.37739 5.58763
Spine1  5.53003 -3.09261 7.18688
HEad  -11.8218 10.3156 -4.38934
LeftShoulder1  -0.0568703 3.70641 -21.6398
LeftArm  -3.55105 -28.8832 -43.8959
LeftForeArm  34.4476 -27.7354 -4.12653
LeftHand  0.0457765 6.93706 5.72846
RightShoulder  -0.551502 -5.12054 27.343
RightArm  10.9951 -5.91 41.8348
RightForeArm  18.4921 11.9281 5.04905
RightHand  0.0587608 3.19999 0.548252
LeftUpLeg  5.43712 1.75878 3.71891
LeftLeg  48.4023 -4.65233 -5.09068
LeftFoot  -0.56122 1.0516 -11.9207
LeftToes  1.648e-009 -9.21574e-011 2.55256e-011
